<?xml version="1.0" encoding="UTF-8"?>
<svg id="Layer_1" xmlns="http://www.w3.org/2000/svg" version="1.1" viewBox="0 0 800 800">
  <!-- Generator: Adobe Illustrator 29.1.0, SVG Export Plug-In . SVG Version: 2.1.0 Build 142)  -->
  <defs>
    <style>
      .st0 {
        fill: #fff;
      }
    </style>
  </defs>
  <path class="st0" d="M377.2,32.8l-23.8,54.3c-12.3.7-24.5,2.3-36.7,4.6l-36.4-47-39.2,13.3-.2,59.8c-16.6,8.5-32.5,18.9-47.6,30.9l-55.4-25-28.4,30.2,28.4,53.8c-9.1,13-17.1,26.7-23.8,40.8l-60.8,1.7-12.4,39.5,49.1,36.2c-2.4,14.7-3.5,29.5-3.6,44.3l-54.5,27.6,5.7,41,59.9,11.7c3.6,12.5,8,24.7,13.3,36.7l-39.5,49,22,35.1,61.3-14.4c3.9,4.5,7.9,9,12.1,13.3,8.8,9.1,18.1,17.5,27.7,25.2l-11.9,61.4,35.8,20.7,46.8-40.8c13.4,5.4,27.2,9.7,41.3,13l15.3,60,41.3,3.4,24.8-56.6c17.1-1,34.2-3.6,51-7.7l39.4,45.7,38.4-15.4-1.1-23.1-89.7-68c-26.1,6.6-53.2,8.4-79.8,5.4-49.6-5.6-97.3-28-134.7-66.7-85.5-88.5-83.1-229.2,5.4-314.7,42.8-41.4,98-62.4,153.1-63,58.7-.6,117.5,21.9,161.6,67.5,71.8,74.2,81.6,185.9,30.6,270.5l50,37.9c6.2-9.8,11.9-19.9,16.8-30.3l60.4-1.7,12.4-39.5-48.8-35.9c2.4-14.8,3.5-29.7,3.6-44.7l54.2-27.5-5.7-41-59.8-11.7c-5-17.2-11.6-34-19.9-50.2l35.6-49.4-23.8-33.8-58.7,17c-.7-.8-1.5-1.6-2.2-2.3-9.4-9.7-19.3-18.6-29.6-26.7l11.2-58-35.8-20.7-44.5,38.8c-14.4-5.8-29.2-10.3-44.2-13.7l-14.6-57.3-41.3-3.4ZM286.3,272.7c-16.2.2-32.2,4.2-46.9,11.4l70.7,53.6c21.4,16.2,27.4,47,11,68.7-16.4,21.6-47.9,24.9-69.6,8.4l-70.6-53.6c-7.2,38.7,6.5,79.8,40,105.2,30.1,22.8,68.7,27.1,101.9,15.1l7.5-2.7,6.3,4.8,211.2,160.3,6.3,4.8-.5,7.9c-2.6,35.2,11.9,71.3,41.9,94.1,33.5,25.4,76.8,27.5,112.2,10.2l-70.6-53.6c-21.7-16.4-27-47.7-10.6-69.3,16.4-21.6,47.7-24.1,69.1-7.9l70.6,53.6c7.2-38.7-6.4-79.8-39.9-105.2-30.2-22.9-68.5-27.4-101.5-15.7l-7.4,2.6-6.3-4.8-211.2-160.3-6.3-4.8.5-7.9c2.4-35-12.3-70.6-42.4-93.5-19.6-14.9-42.5-21.8-65.3-21.6h0ZM354.4,413.7l256.1,194.3-17.6,23.3-256.1-194.3,17.7-23.2Z"/>
</svg>