<?xml version="1.0" encoding="UTF-8"?>
<svg id="Layer_1" xmlns="http://www.w3.org/2000/svg" version="1.1" viewBox="0 0 800 800">
  <!-- Generator: Adobe Illustrator 29.1.0, SVG Export Plug-In . SVG Version: 2.1.0 Build 142)  -->
  <defs>
    <style>
      .st0 {
        fill: #fff;
      }

      .st1 {
        fill: none;
      }
    </style>
  </defs>
  <g id="_页面-1" data-name="页面-1">
    <g id="Device">
      <g id="chip_fill">
        <path id="MingCute" class="st1" d="M0,800V0h800v800"/>
        <path id="_形状" data-name="形状" class="st0" d="M502.1,66.7c17.2,1,31.3,16.6,31.3,33.9v32.7s33.3,0,33.3,0c55.2,0,100,44.8,100,100v33.3h32.7c17.3,0,32.8,14,33.9,31.3s-14.2,35.4-33.3,35.4h-33.3v133.3h32.7c17.3,0,32.8,14,33.9,31.3,1.2,19.3-14.2,35.4-33.3,35.4h-33.3v33.3c0,55.2-44.8,100-100,100h-33.3v32.7c0,17.3-14,32.8-31.3,33.9-19.3,1.2-35.4-14.2-35.4-33.3v-33.3h-133.3v32.7c0,17.3-14,32.8-31.3,33.9s-35.4-14.2-35.4-33.3v-33.3h-33.3c-55.2,0-100-44.8-100-100v-33.3h-32.7c-17.3,0-32.8-14-33.9-31.3-1.2-19.3,14.2-35.4,33.3-35.4h33.3v-133.3h-32.7c-17.3,0-32.8-14-33.9-31.3-1.2-19.3,14.2-35.4,33.3-35.4h33.3v-33.3c0-55.2,44.8-100,100-100h33.3v-32.7c0-17.3,14-32.8,31.3-33.9s35.4,14.2,35.4,33.3v33.3h133.3v-33.3c0-19.1,16.1-34.4,35.4-33.3ZM466.7,266.7h-133.3c-36.8,0-66.7,29.8-66.7,66.7v133.3c0,36.8,29.8,66.7,66.7,66.7h133.3c36.8,0,66.7-29.8,66.7-66.7v-133.3c0-36.8-29.8-66.7-66.7-66.7ZM466.7,333.3v133.3h-133.3v-133.3h133.3Z"/>
      </g>
    </g>
  </g>
</svg>