<?xml version="1.0" encoding="UTF-8"?>
<svg id="Capa_1" xmlns="http://www.w3.org/2000/svg" version="1.1" viewBox="0 0 800 800">
  <!-- Generator: Adobe Illustrator 29.0.1, SVG Export Plug-In . SVG Version: 2.1.0 Build 192)  -->
  <defs>
    <style>
      .st0 {
        fill: #fff;
      }
    </style>
  </defs>
  <path class="st0" d="M772.9,161.6h-8.5v-32.2c0-15-12.2-27.1-27.1-27.1H96.7c-14.1,0-27.9,10.7-31.4,24.3l-.4,1.6H27.1c-15,0-27.1,12.2-27.1,27.1v93.7c0,14.6,11.6,26.6,26.2,27.1l-11.3,43.3c-1.9,7.3-.6,14.7,3.7,20.2,4.2,5.5,11,8.7,18.6,8.7h65.6L2.3,659.2c-3.1,9.7-1.9,19.4,3.4,26.8,5.3,7.3,14.2,11.5,24.4,11.5l274.7.3h0c9.8,0,18.9-3.8,25.9-10.7,6.9-6.9,10.7-16.1,10.7-25.9v-64.3c0-20.2-16.4-36.6-36.6-36.6h-16.7c-4.1,0-7.3-1.3-9-3.7-1.7-2.4-2-5.8-.7-9.7l14.5-44.9h153.2c22.4,0,45.3-14.9,54.4-35.4l52.4-118.3h184.3c15,0,27.1-12.2,27.1-27.1v-45h8.5c15,0,27.1-12.2,27.1-27.1v-60.2c0-15-12.2-27.1-27.1-27.1ZM443.6,438.5h-70.1c20.4-10.6,33.5-28.1,33.5-48.2s-8.9-31.5-23.5-42.1h100.1l-40,90.4ZM512.3,218.8c0,10-8.1,18.1-18.1,18.1H211.3c-10,0-18.1-8.1-18.1-18.1v-55.1c0-10,8.1-18.1,18.1-18.1h282.8c10,0,18.1,8.1,18.1,18.1v55.1Z"/>
</svg>