<?xml version="1.0" encoding="UTF-8"?>
<svg id="Capa_1" xmlns="http://www.w3.org/2000/svg" version="1.1" viewBox="0 0 800 800">
  <!-- Generator: Adobe Illustrator 29.1.0, SVG Export Plug-In . SVG Version: 2.1.0 Build 142)  -->
  <defs>
    <style>
      .st0 {
        fill: #fff;
      }
    </style>
  </defs>
  <path class="st0" d="M595.3,266.9c-8,0-15.6,1.3-22.9,3.6v-130.6c0-41.2-33.6-74.8-74.8-74.8s-15.8,1.3-23.1,3.7C471.4,30.3,439.2,0,400,0s-71.4,30.3-74.5,68.8c-7.3-2.4-15-3.7-23.1-3.7-41.2,0-74.8,33.6-74.8,74.8v26.4c-7.2-2.3-14.9-3.6-22.9-3.6-41.2,0-74.8,33.6-74.8,74.8v292.4c0,148.9,121.2,270.1,270.1,270.1s270.1-121.2,270.1-270.1v-188.2c0-41.2-33.6-74.8-74.8-74.8ZM618.1,529.9c0,120.3-97.9,218.1-218.1,218.1s-218.1-97.9-218.1-218.1V237.5c0-12.6,10.3-22.9,22.9-22.9s22.9,10.3,22.9,22.9v142.7c0,14.3,11.6,26,26,26s26-11.6,26-26v-240.3c0-12.6,10.3-22.9,22.9-22.9s22.9,10.3,22.9,22.9v175.2c0,14.3,11.6,26,26,26s26-11.6,26-26V74.8c0-12.6,10.3-22.9,22.9-22.9s22.9,10.3,22.9,22.9v240.3c0,14.3,11.6,26,26,26s26-11.6,26-26v-175.2c0-12.6,10.3-22.9,22.9-22.9s22.9,10.3,22.9,22.9v287.5c0,14.3,11.6,26,26,26s26-11.6,26-26v-85.7c0-12.6,10.3-22.9,22.9-22.9s22.9,10.3,22.9,22.9v188.2h0Z"/>
  <path class="st0" d="M400,413.7c-77.3,0-140.1,62.9-140.1,140.1s62.9,140.1,140.1,140.1,140.1-62.9,140.1-140.1-62.9-140.1-140.1-140.1ZM479.8,611.6l-39.2-39.2c.4-1,.8-2,1.2-3h55.5c-2.5,15.6-8.6,29.9-17.5,42.2ZM302.7,569.4h55.5c.4,1,.8,2,1.2,3l-39.2,39.2c-8.9-12.3-15-26.6-17.5-42.2ZM320.2,496l39.2,39.2c-.4,1-.8,2-1.2,2.9h-55.5c2.5-15.6,8.6-29.9,17.5-42.2ZM418.5,513.2c-1-.4-2-.8-3-1.2v-55.5c15.6,2.5,29.9,8.6,42.2,17.5l-39.2,39.2ZM384.4,512c-1,.4-2,.8-3,1.2l-39.2-39.2c12.3-8.9,26.6-15,42.2-17.5v55.5ZM381.5,594.4c1,.4,2,.8,2.9,1.2v55.5c-15.6-2.5-29.9-8.6-42.2-17.5l39.2-39.2ZM415.6,595.6c1-.4,2-.8,2.9-1.2l39.2,39.2c-12.3,8.9-26.6,15-42.2,17.5v-55.5ZM441.8,538.2c-.4-1-.8-2-1.2-2.9l39.2-39.2c8.9,12.3,15,26.6,17.5,42.2h-55.5Z"/>
</svg>