<?xml version="1.0" encoding="UTF-8"?>
<svg id="Layer_1" xmlns="http://www.w3.org/2000/svg" version="1.1" viewBox="0 0 800 800">
  <!-- Generator: Adobe Illustrator 29.0.1, SVG Export Plug-In . SVG Version: 2.1.0 Build 192)  -->
  <defs>
    <style>
      .st0 {
        fill: #fff;
      }
    </style>
  </defs>
  <path class="st0" d="M146.2,538.5h200c12.3,0,23.1-10.8,23.1-23.1V153.8c0-26.2-27.7-46.2-49.2-46.2h-173.8c-12.3,0-23.1,10.8-23.1,23.1v384.6c0,12.3,10.8,23.1,23.1,23.1Z"/>
  <path class="st0" d="M756.9,178.5c-9.2-3.1-18.5,4.6-18.5,15.4v383.1c0,12.3-10.8,23.1-23.1,23.1H84.6c-12.3,0-23.1-10.8-23.1-23.1V195.4c0-10.8-12.3-18.5-21.5-13.8C16.9,192.3,0,216.9,0,246.2v353.8c0,33.8,27.7,61.5,61.5,61.5h253.8c12.3,0,23.1,10.8,23.1,23.1h0c0,12.3,10.8,23.1,23.1,23.1h76.9c12.3,0,23.1-10.8,23.1-23.1h0c0-12.3,10.8-23.1,23.1-23.1h253.8c33.8,0,61.5-27.7,61.5-61.5V246.2c0-32.3-10.8-60-43.1-67.7Z"/>
  <path class="st0" d="M453.8,538.5h200c12.3,0,23.1-10.8,23.1-23.1V130.8c0-12.3-10.8-23.1-23.1-23.1h-173.8c-23.1,0-49.2,20-49.2,46.2v361.5c0,12.3,10.8,23.1,23.1,23.1Z"/>
</svg>