<?xml version="1.0" encoding="UTF-8"?>
<svg id="Layer_1" xmlns="http://www.w3.org/2000/svg" version="1.1" viewBox="0 0 800 800">
  <!-- Generator: Adobe Illustrator 29.0.1, SVG Export Plug-In . SVG Version: 2.1.0 Build 192)  -->
  <defs>
    <style>
      .st0 {
        fill: #fff;
      }
    </style>
  </defs>
  <polygon class="st0" points="244.4 366.7 222.2 435.6 266.7 435.6 244.4 366.7"/>
  <path class="st0" d="M673.3,66.7h-355.6v111.1h88.9v44.4H117.8c-37.8,0-66.7,28.9-66.7,66.7v244.4c0,37.8,28.9,66.7,66.7,66.7h22.2v113.3l140-113.3h148.9v-155.6h244.4c37.8,0,66.7-28.9,66.7-66.7v-244.4c0-37.8-28.9-66.7-66.7-66.7ZM291.1,508.9l-11.1-35.6h-68.9l-13.3,35.6h-53.3l73.3-197.8h53.3l73.3,197.8h-53.3ZM628.9,333.3v44.4c-28.9,0-60-8.9-86.7-22.2-26.7,13.3-57.8,20-88.9,22.2l-2.2-44.4c15.6,0,31.1-2.2,46.7-6.7-20-20-33.3-44.4-40-71.1h46.7c6.7,20,20,35.6,35.6,48.9,24.4-20,40-48.9,42.2-82.2h-133.3v-44.4h66.7v-44.4h44.4v44.4h73.3l2.2,22.2c2.2,46.7-15.6,93.3-48.9,126.7,15.6,4.4,28.9,6.7,42.2,6.7Z"/>
</svg>