<?xml version="1.0" encoding="UTF-8"?>
<svg id="_x32_" xmlns="http://www.w3.org/2000/svg" version="1.1" viewBox="0 0 800 800">
  <!-- Generator: Adobe Illustrator 29.1.0, SVG Export Plug-In . SVG Version: 2.1.0 Build 142)  -->
  <defs>
    <style>
      .st0 {
        fill: #fff;
      }
    </style>
  </defs>
  <path class="st0" d="M682.8,117.2C610.6,44.8,510.3,0,400,0c-110.4,0-210.5,44.8-282.8,117.2C44.8,189.4,0,289.6,0,400c0,110.3,44.8,210.5,117.2,282.8,72.3,72.3,172.5,117.2,282.8,117.2,110.4,0,210.6-44.8,282.8-117.2,72.3-72.3,117.2-172.5,117.2-282.8,0-110.4-44.8-210.6-117.2-282.8ZM646.7,646.7c-8.5,8.5-17.5,16.5-26.8,24.1l-73.5-226.3h0s-15.7-48.3-15.7-48.3l-17.9-55h-50.7l27.6,84.8h0s15.7,48.3,15.7,48.3h0s39,120.2,39,120.2l-85.9-62.3-41,29.8,176.3,128.1c-55.4,37.1-121.9,58.7-193.7,58.7-71.3,0-137.5-21.4-192.7-58.1l193.7-140.6,41-29.9,46.8-33.9-15.7-48.3-72.1,52.4-41.1,29.8-102.3,74.3,32.8-100.9-41.1-29.9-67.7,208.2c-9.9-7.9-19.3-16.3-28.3-25.3-63.2-63.2-102.2-150.2-102.2-246.7,0-32.8,4.6-64.5,13.1-94.5l191.3,139h0s41.1,29.8,41.1,29.8l46.8,34,41.1-29.9-72.2-52.4h0s-41.1-29.8-41.1-29.8h0s-102.3-74.3-102.3-74.3h106.1l15.7-48.3H74.9c17.7-45.4,44.5-86.3,78.5-120.2,59.5-59.5,140.1-97.5,229.9-101.8l-5.3,16.2-66.9,205.8-15.6,48.3-17.8,55,41,29.8,27.6-84.8,15.7-48.3,39.1-120.2,32.8,100.9h50.8l-65.9-202.6c89,4.7,168.9,42.6,228,101.7,33.9,33.9,60.8,74.8,78.5,120.2h-343l-15.7,48.3h266.4l-85.9,62.3h0c0,0,15.7,48.4,15.7,48.4l173.4-126c8.2,29.7,12.7,61,12.7,93.5,0,96.4-39,183.4-102.2,246.7Z"/>
</svg>