<?xml version="1.0" encoding="UTF-8"?>
<svg id="Layer_1" xmlns="http://www.w3.org/2000/svg" version="1.1" viewBox="0 0 800 800">
  <!-- Generator: Adobe Illustrator 29.1.0, SVG Export Plug-In . SVG Version: 2.1.0 Build 142)  -->
  <defs>
    <style>
      .st0 {
        fill: #fff;
      }
    </style>
  </defs>
  <path class="st0" d="M56.7,275c1.1.6,37.9,21.5,68.3,21.5s68.5-20.9,69.6-21.5h14.1c22.9,0,41.3,18.5,41.3,41.3v158.7c0,27.6-22.4,50-50,50v187.5c0,20.7-16.8,37.5-37.5,37.5h-75c-20.7,0-37.5-16.8-37.5-37.5v-187.5c-27.6,0-50-22.4-50-50v-157.4c0-23.5,19-42.5,42.6-42.6h14.1ZM331.7,275c1.1.6,37.9,21.5,68.3,21.5s68.5-20.9,69.6-21.5h14.1c22.9,0,41.3,18.5,41.3,41.3v158.7c0,27.6-22.4,50-50,50v187.5c0,20.7-16.8,37.5-37.5,37.5h-75c-20.7,0-37.5-16.8-37.5-37.5v-187.5c-27.6,0-50-22.4-50-50v-157.4c0-23.5,19-42.5,42.6-42.6h14.1ZM712.5,750h-75c-20.7,0-37.5-16.8-37.5-37.5v-187.5c-27.6,0-50-22.4-50-50v-157.4c0-23.5,19.1-42.6,42.6-42.6h14.1s37.5,21.5,68.3,21.5,69.6-21.5,69.6-21.5h14.1c22.8,0,41.3,18.5,41.3,41.3v158.7c0,27.6-22.4,50-50,50v187.5c0,20.7-16.7,37.4-37.5,37.5ZM125,250c55.2,0,100-44.8,100-100s-44.8-100-100-100S25,94.8,25,150s44.8,100,100,100ZM400,250c55.2,0,100-44.8,100-100s-44.8-100-100-100-100,44.8-100,100,44.8,100,100,100ZM775,150c0,55.2-44.8,100-100,100s-100-44.8-100-100,44.8-100,100-100,100,44.8,100,100Z"/>
</svg>