<?xml version="1.0" encoding="UTF-8"?>
<svg id="Layer_1" xmlns="http://www.w3.org/2000/svg" version="1.1" viewBox="0 0 800 800">
  <!-- Generator: Adobe Illustrator 29.1.0, SVG Export Plug-In . SVG Version: 2.1.0 Build 142)  -->
  <defs>
    <style>
      .st0 {
        fill: #fff;
      }
    </style>
  </defs>
  <path class="st0" d="M400,0C179.5,0,0,179.4,0,400s179.4,400,400,400,400-179.4,400-400S620.6,0,400,0ZM584.3,224.5l-124,169.2h89.3c17.2,0,31.2,14,31.2,31.2s-14,31.2-31.2,31.2h-118.4v31.2h118.4c17.2,0,31.2,14,31.2,31.2s-14,31.2-31.2,31.2h-118.4v81.5c0,17.2-14,31.2-31.2,31.2s-31.2-14-31.2-31.2v-81.5h-118c-17.2,0-31.2-14-31.2-31.2s14-31.2,31.2-31.2h118v-31.2h-118c-17.2,0-31.2-14-31.2-31.2s14-31.2,31.2-31.2h89.8l-124-169.2c-10.2-13.9-7.2-33.5,6.7-43.7,5.4-4,11.8-6.1,18.5-6.1,9.9,0,19.4,4.8,25.2,12.8l133.5,182.1,133.5-182.1c5.9-8,15.3-12.8,25.2-12.8s13,2.1,18.4,6.1c13.9,10.2,16.9,29.8,6.7,43.7Z"/>
</svg>