<?xml version="1.0" encoding="iso-8859-1"?>
<!-- Uploaded to: SVG Repo, www.svgrepo.com, Generator: SVG Repo Mixer Tools -->
<!DOCTYPE svg PUBLIC "-//W3C//DTD SVG 1.1//EN" "http://www.w3.org/Graphics/SVG/1.1/DTD/svg11.dtd">
<svg fill="#000000" version="1.1" id="Capa_1" xmlns="http://www.w3.org/2000/svg" xmlns:xlink="http://www.w3.org/1999/xlink" 
	 viewBox="0 0 297 297" xml:space="preserve">
<g>
	<path d="M8.735,195.602v66.971c0,6.233,5.071,11.305,11.306,11.305H34.77h0.001v-104.31H34.77
		C20.414,169.567,8.735,181.246,8.735,195.602z"/>
	<path d="M262.231,169.567v104.31h14.73c6.233,0,11.305-5.071,11.305-11.305v-66.971
		C288.265,181.246,276.586,169.567,262.231,169.567z"/>
	<path d="M25.05,80.244h4.115c-0.812-3.179-1.245-6.507-1.245-9.935V25.778c0-3.428,0.434-6.756,1.245-9.935H25.05
		c-7.768,0-14.087,6.32-14.087,14.087v36.226C10.962,73.925,17.282,80.244,25.05,80.244z"/>
	<path d="M230.286,0H68.084C53.87,0,42.307,11.564,42.307,25.778V70.31c0,14.214,11.563,25.778,25.777,25.778h19.441V73.479
		c0-3.973,3.221-7.194,7.194-7.194c3.973,0,7.194,3.221,7.194,7.194v22.609h94.547V73.479c0-3.973,3.221-7.194,7.194-7.194
		s7.194,3.221,7.194,7.194v22.609h19.44c14.214,0,25.778-11.564,25.778-25.778V25.778C256.064,11.564,244.5,0,230.286,0z"/>
	<rect x="78.789" y="200.398" width="140.792" height="59.606"/>
	<path d="M210.846,110.476v13.874c0,3.973-3.221,7.194-7.194,7.194s-7.194-3.221-7.194-7.194v-13.874h-94.547v13.874
		c0,3.973-3.221,7.194-7.194,7.194c-3.973,0-7.194-3.221-7.194-7.194v-13.874H68.084c-7.976,0-15.41-2.347-21.667-6.372v176.54
		c0,9.019,7.337,16.357,16.357,16.357h172.822c9.019,0,16.358-7.337,16.358-16.357v-176.54c-6.257,4.026-13.691,6.373-21.668,6.373
		H210.846z M233.969,193.204v73.993c0,3.973-3.221,7.194-7.194,7.194H71.595c-3.973,0-7.194-3.221-7.194-7.194v-73.993
		c0-3.973,3.221-7.194,7.194-7.194h155.18C230.749,186.01,233.969,189.231,233.969,193.204z"/>
	<path d="M269.206,80.244h4.114c7.769,0,14.088-6.32,14.088-14.087V29.931c0-7.768-6.32-14.087-14.088-14.087h-4.114
		c0.812,3.179,1.245,6.507,1.245,9.935V70.31C270.452,73.738,270.018,77.066,269.206,80.244z"/>
</g>
</svg>