<?xml version="1.0" encoding="iso-8859-1"?>
<!-- Uploaded to: SVG Repo, www.svgrepo.com, Generator: SVG Repo Mixer Tools -->
<!DOCTYPE svg PUBLIC "-//W3C//DTD SVG 1.1//EN" "http://www.w3.org/Graphics/SVG/1.1/DTD/svg11.dtd">
<svg fill="#000000" version="1.1" id="Capa_1" xmlns="http://www.w3.org/2000/svg" xmlns:xlink="http://www.w3.org/1999/xlink" 
	 width="800px" height="800px" viewBox="0 0 46.056 46.056"
	 xml:space="preserve">
<g>
	<g>
		<g>
			<polygon points="18.731,3.484 23.022,8.381 27.312,3.484 			"/>
			<path d="M45.942,30.192l-6.119-16.47c-1.172-3.155-4.033-5.329-7.33-5.663l-4.549,6.085c-0.453,0.607-1.177,0.971-1.964,0.971
				l0,0c-0.771,0-1.502-0.392-1.948-1.021l-0.058-0.075v28.553h9.752c0.99,0,1.821-0.798,1.821-1.787V23.272l3.141,9.255
				c0.309,0.908,1.271,1.412,2.191,1.146l3.884-1.134c0.479-0.14,0.875-0.472,1.1-0.916C46.09,31.177,46.116,30.66,45.942,30.192z
				 M32.865,36.328c0,1.857-1.523,3.364-3.383,3.364c-1.86,0-3.384-1.507-3.384-3.364v-3.457c0-0.479,0.409-0.869,0.891-0.869h4.989
				c0.479,0,0.887,0.391,0.887,0.869V36.328z"/>
			<path d="M25.606,12.994c0.091,0.129,0.238,0.22,0.396,0.22c0.003,0,0.005,0,0.008,0c0.154,0,0.301-0.085,0.395-0.209l5.147-6.892
				c0.153-0.206,0.124-0.499-0.068-0.669L29.99,4.127c-0.09-0.08-0.206-0.124-0.326-0.124c-0.01,0-0.021,0-0.029,0
				c-0.132,0.009-0.252,0.068-0.34,0.167l-5.243,5.954c-0.151,0.172-0.166,0.425-0.033,0.611L25.606,12.994z"/>
			<path d="M20.076,15.115L20.076,15.115c-0.788,0-1.511-0.363-1.965-0.971l-4.549-6.085c-3.298,0.334-6.158,2.508-7.33,5.663
				l-6.118,16.47c-0.174,0.468-0.147,0.985,0.077,1.431c0.224,0.444,0.621,0.776,1.099,0.916l3.884,1.133
				c0.921,0.27,1.879-0.234,2.188-1.145l3.136-9.255v17.511c0,0.99,0.839,1.787,1.829,1.787h9.746V14.018l-0.054,0.075
				C21.574,14.723,20.847,15.115,20.076,15.115z M19.949,36.328c0,1.857-1.524,3.364-3.383,3.364c-1.858,0-3.383-1.507-3.383-3.364
				v-3.457c0-0.479,0.414-0.869,0.894-0.869h4.991c0.48,0,0.882,0.391,0.882,0.869L19.949,36.328L19.949,36.328z"/>
			<path d="M16.761,4.17c-0.086-0.099-0.208-0.158-0.339-0.167c-0.01,0-0.021,0-0.031,0c-0.12,0-0.236,0.044-0.327,0.123
				L14.57,5.443c-0.193,0.17-0.223,0.463-0.069,0.669l5.148,6.892c0.093,0.124,0.239,0.209,0.394,0.209c0.003,0,0.005,0,0.008,0
				c0.158,0,0.305-0.091,0.396-0.22l1.589-2.258c0.132-0.187,0.118-0.438-0.033-0.611L16.761,4.17z"/>
		</g>
	</g>
</g>
</svg>