<?xml version="1.0" encoding="iso-8859-1"?>
<!-- Uploaded to: SVG Repo, www.svgrepo.com, Generator: SVG Repo Mixer Tools -->
<svg fill="#000000" height="800px" width="800px" version="1.1" id="Capa_1" xmlns="http://www.w3.org/2000/svg" xmlns:xlink="http://www.w3.org/1999/xlink" 
	 viewBox="0 0 460 460" xml:space="preserve">
<g id="XMLID_833_">
	<polygon id="XMLID_834_" points="377,78.061 377,174 390,174 390,265 460,265 460,146.233 	"/>
	<polygon id="XMLID_835_" points="390,325 405,325 405,355 445,355 445,325 460,325 460,295 390,295 	"/>
	<polygon id="XMLID_836_" points="347,56.467 320,49.056 320,25 280,25 245.281,90 245,90.277 245,405 215,405 215,349 185,349 
		185,319 215,319 215,263 185,263 185,233 215,233 215,176 185,176 185,146 215,146 215,90.277 214.703,89.984 215,90 180,25 
		140,25 140,49.056 113,56.467 113,405 128,405 128,435 332,435 332,405 347,405 	"/>
	<polygon id="XMLID_837_" points="0,146.233 0,265 70,265 70,174 83,174 83,78.061 	"/>
	<polygon id="XMLID_838_" points="0,325 15,325 15,355 55,355 55,325 70,325 70,295 0,295 	"/>
</g>
</svg>